<?xml version="1.0" standalone="no"?><!DOCTYPE svg PUBLIC "-//W3C//DTD SVG 1.1//EN" "http://www.w3.org/Graphics/SVG/1.1/DTD/svg11.dtd"><svg t="1683945339093" class="icon" viewBox="0 0 1024 1024" version="1.1" xmlns="http://www.w3.org/2000/svg" p-id="16465" xmlns:xlink="http://www.w3.org/1999/xlink" width="200" height="200"><path d="M380.8 598.4l302.4-499.2-80 400h160l-311.2 425.6 80.8-326.4" fill="#FFDD77" p-id="16466"></path><path d="M332 948.8c-3.2 0-7.2-0.8-10.4-2.4-10.4-4.8-16-16.8-12.8-27.2l80-320c3.2-12.8 16-20.8 28.8-17.6 12.8 3.2 20.8 16 17.6 28.8l-50.4 200.8 210.4-288.8h-112c-7.2 0-14.4-3.2-18.4-8.8-4.8-5.6-6.4-12.8-4.8-20l80-400c2.4-12.8 15.2-21.6 28-19.2 12.8 2.4 21.6 15.2 19.2 28L512 475.2h130.4c8.8 0 17.6 4.8 21.6 12.8s3.2 17.6-2.4 24.8l-311.2 425.6c-3.2 7.2-10.4 10.4-18.4 10.4z" fill="#3F4A54" p-id="16467"></path><path d="M260.8 622.4c-4 0-8.8-0.8-12.8-3.2-11.2-7.2-15.2-21.6-8-32.8l302.4-499.2c7.2-11.2 21.6-15.2 32.8-8 11.2 7.2 15.2 21.6 8 32.8L281.6 610.4c-4.8 7.2-12.8 12-20.8 12z" fill="#3F4A54" p-id="16468"></path></svg>