<?xml version="1.0" standalone="no"?><!DOCTYPE svg PUBLIC "-//W3C//DTD SVG 1.1//EN" "http://www.w3.org/Graphics/SVG/1.1/DTD/svg11.dtd"><svg t="1683902401784" class="icon" viewBox="0 0 1024 1024" version="1.1" xmlns="http://www.w3.org/2000/svg" p-id="3560" xmlns:xlink="http://www.w3.org/1999/xlink" width="200" height="200"><path d="M238.24 798.68h-0.86l-108.48-0.42c-17.44 0-31.9-14.46-31.9-31.9 0-17.44 14.46-31.9 31.9-31.9l108.48 0.42h0.42c27.66 0 53.6-13.62 68.92-37.02l271.84-407.56c27.22-40.84 72.74-65.52 122.1-65.52h0.86l193.56 0.86c17.44 0 31.9 14.46 31.9 31.9 0 17.44-14.46 31.9-31.9 31.9l-193.56-0.86h-0.42c-27.66 0-53.6 13.62-68.92 37.02L360.34 733.16c-27.24 41.28-72.76 65.52-122.1 65.52z" fill="#292D32" p-id="3561"></path><path d="M809.96 883.34c-8.08 0-16.16-2.98-22.54-9.36-12.34-12.34-12.34-32.76 0-45.1l85.08-85.08c12.34-12.34 32.76-12.34 45.1 0 12.34 12.34 12.34 32.76 0 45.1l-85.08 85.08c-6.38 6.38-14.46 9.36-22.56 9.36zM379.9 400.48c-9.78 0-19.58-4.68-25.96-13.18L308 323.48c-15.74-21.7-41.7-34.46-67.64-34.46l-111.04 0.42c-19.58-0.42-31.9-14.04-31.9-31.9 0-17.44 14.04-31.9 31.9-31.9l111.04-0.42h0.86c47.22 0 91.46 22.98 119.12 60.84l45.94 63.82c10.2 14.46 7.24 34.04-7.24 44.66-5.94 3.82-12.32 5.94-19.14 5.94z" fill="#F7931E" p-id="3562"></path><path d="M696 799.1c-45.1 0-88.48-21.28-116.14-57l-51.9-66.78c-10.64-14.04-8.08-34.04 5.54-44.68 14.04-10.64 34-8.08 44.62 5.54l51.9 66.8c15.74 20.42 40.88 30.64 65.98 32.34l198.64-0.86c17.44 0 31.9 14.04 31.9 31.9 0 17.44-14.04 31.9-31.9 31.9l-198.64 0.84c0.42 0 0 0 0 0z" fill="#F7931E" p-id="3563"></path><path d="M895.06 289.46c-8.08 0-16.16-2.98-22.54-9.36L787.42 195c-12.34-12.34-12.34-32.76 0-45.1 12.34-12.34 32.76-12.34 45.1 0l85.08 85.08c12.34 12.34 12.34 32.76 0 45.1-6.38 6.4-14.46 9.38-22.54 9.38z" fill="#292D32" p-id="3564"></path></svg>