<?xml version="1.0" standalone="no"?><!DOCTYPE svg PUBLIC "-//W3C//DTD SVG 1.1//EN" "http://www.w3.org/Graphics/SVG/1.1/DTD/svg11.dtd"><svg t="1683461238706" class="icon" viewBox="0 0 1024 1024" version="1.1" xmlns="http://www.w3.org/2000/svg" p-id="8625" xmlns:xlink="http://www.w3.org/1999/xlink" width="200" height="200"><path d="M856.437917 543.199837V343.976798a343.976798 343.976798 0 0 0-687.953596 0V543.199837c0 94.875758-67.424397 171.611143-162.268048 171.611143v137.417342h1011.141204v-137.417342c-94.779438 0-160.91956-76.735385-160.91956-171.611143z m-714.377538 212.547384a253.467572 253.467572 0 0 0 120.256228-215.437001v-194.246477a248.940505 248.940505 0 1 1 497.88101 0v194.246477a253.483625 253.483625 0 0 0 120.272281 215.437001h-738.457679z m371.01077 268.092245a140.628028 140.628028 0 0 0 132.472887-107.076364h-264.881559a140.579867 140.579867 0 0 0 132.472886 107.076364z" fill="#959595" p-id="8626" data-spm-anchor-id="a313x.7781069.0.i4" class="selected"></path></svg>